<?xml version="1.0" standalone="no"?>
<!DOCTYPE svg PUBLIC "-//W3C//DTD SVG 20010904//EN"
 "http://www.w3.org/TR/2001/REC-SVG-20010904/DTD/svg10.dtd">
<svg version="1.0" xmlns="http://www.w3.org/2000/svg"
 width="158.000000pt" height="158.000000pt" viewBox="0 0 158.000000 158.000000"
 preserveAspectRatio="xMidYMid meet">
<metadata>
Created by potrace 1.10, written by Peter Selinger 2001-2011
</metadata>
<g transform="translate(0.000000,158.000000) scale(0.100000,-0.100000)"
fill="#000000" stroke="none">
<path d="M160 805 l0 -115 25 0 c22 0 24 4 27 56 2 40 8 60 20 67 29 19 48 -9
48 -69 0 -47 2 -54 20 -54 18 0 20 7 20 63 0 80 -19 102 -80 94 l-40 -5 6 39
c6 37 5 39 -20 39 l-26 0 0 -115z"/>
<path d="M1236 881 l6 -38 -48 4 c-62 6 -87 -16 -87 -78 0 -47 27 -81 64 -80
13 0 43 1 67 1 l42 1 0 115 0 114 -25 0 c-24 0 -25 -2 -19 -39z m-10 -86 c15
-23 15 -27 0 -50 -19 -29 -42 -32 -68 -8 -22 20 -23 41 -1 65 23 25 50 23 69
-7z"/>
<path d="M36 875 c5 -21 3 -25 -15 -25 -27 0 -28 -26 -1 -33 17 -4 20 -13 19
-50 -1 -24 1 -49 5 -56 11 -18 51 -31 75 -24 30 8 23 38 -9 38 -23 0 -25 4
-28 48 -3 47 -3 48 22 41 22 -5 26 -3 26 15 0 16 -6 21 -25 21 -20 0 -25 5
-25 25 0 20 -5 25 -25 25 -22 0 -25 -3 -19 -25z"/>
<path d="M582 845 c-32 -14 -42 -32 -42 -76 0 -43 15 -65 51 -78 37 -13 99 8
99 33 0 19 -23 21 -50 4 -15 -9 -25 -10 -37 -2 -37 23 -26 34 36 34 53 0 61 2
61 19 0 27 -36 68 -64 73 -13 3 -38 -1 -54 -7z m67 -39 c10 -11 4 -15 -29 -18
-26 -2 -40 0 -40 8 0 24 51 31 69 10z"/>
<path d="M771 844 c-52 -22 -66 -85 -28 -129 31 -36 86 -38 122 -5 14 13 25
27 25 32 0 14 -41 9 -56 -7 -20 -19 -39 -19 -58 1 -21 21 -20 47 3 68 20 18
61 15 61 -5 0 -11 37 -12 44 0 7 11 -33 47 -60 53 -12 3 -35 -1 -53 -8z"/>
<path d="M1373 852 c-13 -2 -32 -15 -43 -29 -44 -56 -6 -138 64 -136 52 1 106
53 57 53 -11 0 -23 -4 -26 -10 -14 -22 -75 -4 -75 22 0 4 29 8 65 8 70 0 74 4
50 49 -15 31 -55 49 -92 43z m55 -49 c2 -9 -9 -13 -38 -13 -37 0 -41 2 -30 16
15 17 61 15 68 -3z"/>
<path d="M371 824 c-44 -57 -8 -138 62 -138 34 0 77 26 77 46 0 11 -38 10 -45
-2 -14 -22 -75 -4 -75 22 0 4 29 8 64 8 l65 0 -10 33 c-12 41 -34 57 -80 57
-29 0 -42 -6 -58 -26z m83 -10 c30 -11 16 -24 -25 -24 -36 0 -40 2 -29 15 13
16 29 19 54 9z"/>
<path d="M931 824 c-12 -15 -21 -39 -21 -54 0 -15 9 -39 21 -54 29 -37 99 -37
128 0 12 15 21 39 21 54 0 15 -9 39 -21 54 -16 21 -29 26 -64 26 -35 0 -48 -5
-64 -26z m90 -14 c29 -16 26 -67 -5 -81 -50 -23 -90 36 -50 75 18 19 28 20 55
6z"/>
<path d="M1524 735 c-9 -23 3 -45 25 -45 25 0 34 14 26 40 -7 23 -43 27 -51 5z"/>
</g>
</svg>
