<?xml version="1.0" standalone="no"?>
<!DOCTYPE svg PUBLIC "-//W3C//DTD SVG 20010904//EN"
 "http://www.w3.org/TR/2001/REC-SVG-20010904/DTD/svg10.dtd">
<svg version="1.0" xmlns="http://www.w3.org/2000/svg"
 width="158.000000pt" height="158.000000pt" viewBox="0 0 158.000000 158.000000"
 preserveAspectRatio="xMidYMid meet">
<metadata>
Created by potrace 1.10, written by Peter Selinger 2001-2011
</metadata>
<g transform="translate(0.000000,158.000000) scale(0.100000,-0.100000)"
fill="#000000" stroke="none">
<path d="M996 1324 c-4 -14 -30 -48 -58 -75 -28 -27 -46 -49 -40 -49 25 0 11
-22 -23 -36 -34 -14 -55 -43 -70 -94 -5 -20 -2 -18 19 11 14 20 48 53 75 72
61 44 98 97 107 155 7 46 0 58 -10 16z"/>
<path d="M747 1198 c-17 -19 -28 -25 -24 -15 4 11 3 16 -4 12 -5 -4 -7 -16 -3
-27 4 -13 2 -18 -4 -14 -6 4 -8 -3 -5 -16 4 -19 3 -20 -6 -8 -8 11 -10 7 -5
-20 3 -20 2 -30 -3 -23 -4 6 -8 -30 -8 -82 0 -52 4 -88 8 -82 5 7 6 -3 3 -23
-4 -21 -3 -30 3 -22 6 11 10 8 14 -10 9 -34 45 -78 74 -89 38 -14 81 14 108
72 13 28 25 45 28 37 3 -7 3 5 1 27 -3 30 -2 35 5 20 12 -25 13 -5 2 52 -4 23
-5 46 0 50 10 10 59 158 58 175 0 7 -6 2 -12 -12 -20 -43 -40 -65 -94 -104
-40 -28 -60 -53 -83 -99 -16 -34 -32 -78 -35 -97 l-6 -35 15 32 c8 19 39 48
76 72 l62 42 -7 -48 c-15 -109 -70 -172 -123 -143 -45 26 -67 84 -67 180 0
101 22 163 68 186 25 14 31 14 52 0 30 -20 44 -2 19 25 -27 30 -71 24 -107
-13z"/>
<path d="M731 731 c-10 -6 -11 -22 -6 -62 l7 -54 -21 23 c-28 28 -56 16 -77
-33 -39 -94 15 -232 71 -185 22 18 18 32 -5 18 -29 -18 -49 7 -56 68 -10 89
36 170 66 114 6 -11 11 -49 11 -83 0 -81 8 -117 24 -117 11 0 11 8 3 38 -6 21
-8 90 -6 160 3 67 4 122 4 122 -1 0 -7 -4 -15 -9z"/>
<path d="M335 563 c0 -139 1 -143 21 -143 20 0 21 3 13 43 -15 79 -13 87 26
87 47 0 75 29 75 78 0 55 -11 65 -77 72 l-58 5 0 -142z m97 110 c21 -19 24
-61 5 -86 -6 -10 -26 -19 -42 -20 l-30 -2 -3 63 c-3 62 -3 62 24 62 15 0 36
-7 46 -17z"/>
<path d="M909 697 c16 -16 15 -249 -1 -265 -9 -9 -7 -12 13 -12 l24 0 0 143 0
142 -24 2 c-17 1 -20 -2 -12 -10z"/>
<path d="M807 648 c-55 -43 -46 -214 13 -233 29 -9 58 19 65 65 l6 35 -13 -34
c-29 -77 -74 -62 -85 27 l-6 52 52 0 c28 0 51 4 51 9 0 23 -24 73 -40 81 -23
12 -23 13 -43 -2z m47 -24 c15 -39 7 -54 -29 -54 -19 0 -35 2 -35 4 0 1 5 17
11 35 12 33 42 43 53 15z"/>
<path d="M496 639 c-3 -8 -7 -60 -8 -117 -3 -85 -1 -102 12 -102 13 0 15 18
13 111 -1 105 -7 139 -17 108z"/>
<path d="M532 638 c-16 -16 -15 -35 2 -35 8 0 16 11 19 24 5 25 -3 29 -21 11z"/>
<path d="M583 642 c-7 -5 -13 -46 -15 -115 -3 -105 -2 -107 19 -107 20 0 21 3
11 30 -5 17 -8 68 -7 115 2 47 4 85 4 85 0 0 -5 -4 -12 -8z"/>
<path d="M1016 641 c-3 -5 -14 -7 -24 -5 -15 5 -17 -5 -17 -105 0 -92 3 -111
15 -111 12 0 14 15 12 88 -3 77 -1 91 17 113 21 24 21 24 37 4 12 -16 14 -41
12 -113 -2 -76 0 -92 12 -92 12 0 14 15 12 87 -4 107 -16 143 -48 143 -12 0
-25 -4 -28 -9z"/>
<path d="M1127 640 c-3 -8 -8 -61 -9 -118 -3 -100 -3 -102 20 -102 20 0 21 2
11 22 -14 25 -6 146 11 177 31 59 65 -17 58 -131 -3 -56 -1 -68 12 -68 13 0
14 14 10 99 -6 102 -17 131 -51 131 -10 0 -24 -9 -33 -21 l-14 -21 -4 23 c-3
18 -6 20 -11 9z"/>
<path d="M582 355 c-1 -12 -7 -26 -14 -33 -9 -9 -9 -12 0 -12 7 0 12 -9 12
-20 0 -13 7 -20 20 -20 25 0 38 29 19 41 -12 8 -12 11 1 19 13 8 12 10 -2 10
-11 0 -18 -8 -18 -20 0 -11 5 -20 10 -20 6 0 10 -5 10 -11 0 -6 -6 -9 -12 -7
-7 3 -16 24 -19 49 -3 24 -7 35 -7 24z"/>
<path d="M855 358 c-20 -61 -23 -88 -9 -88 9 0 14 12 15 33 l1 32 7 -29 c3
-16 12 -31 19 -32 7 -1 8 0 2 3 -5 2 -10 17 -10 31 0 21 2 24 10 12 8 -13 10
-12 10 3 0 12 -6 17 -17 15 -12 -2 -17 3 -15 15 3 19 -7 23 -13 5z"/>
<path d="M431 318 c0 -27 3 -48 8 -48 5 0 7 9 4 20 -3 11 0 20 6 20 6 0 11 -8
11 -18 0 -16 8 -18 56 -18 31 0 51 2 45 4 -12 4 -15 48 -3 55 4 2 1 2 -5 1 -7
-2 -13 1 -13 7 0 6 -6 7 -12 2 -7 -4 -20 -8 -28 -8 -8 0 -18 -11 -22 -25 -5
-18 -6 -14 -2 13 3 22 1 37 -6 37 -5 0 -10 -9 -10 -20 0 -27 -18 -25 -23 3 -2
12 -5 1 -6 -25z"/>
<path d="M724 346 c-3 -8 -4 -27 -2 -43 3 -25 7 -28 41 -30 20 -1 37 2 37 8 0
6 -4 7 -10 4 -6 -4 -10 5 -10 20 0 15 4 24 10 20 6 -3 10 -1 10 4 0 24 -26 9
-38 -21 -8 -23 -15 -29 -23 -21 -14 14 -7 59 9 56 6 -2 12 2 12 7 0 15 -30 12
-36 -4z"/>
<path d="M657 318 c-6 -39 -2 -48 22 -48 14 0 17 6 13 25 -2 14 -8 23 -12 20
-5 -3 -6 4 -3 15 3 11 1 20 -5 20 -5 0 -12 -15 -15 -32z"/>
<path d="M1123 342 c-6 -4 -13 -21 -16 -37 l-4 -30 -2 33 -1 32 -66 -2 c-36
-1 -67 -5 -70 -10 -3 -4 -11 -8 -17 -8 -8 0 -8 3 2 9 9 6 5 9 -13 9 -24 0 -26
-4 -24 -37 l1 -36 5 35 5 35 6 -29 c3 -16 12 -31 19 -32 7 -1 8 0 2 3 -15 7
-12 33 4 33 8 0 17 -10 19 -22 3 -17 5 -14 6 10 1 39 21 43 21 4 0 -22 5 -28
23 -29 12 0 16 1 10 4 -7 3 -13 16 -13 30 0 33 24 25 28 -10 3 -25 32 -40 32
-16 0 5 -4 7 -10 4 -6 -4 -10 6 -9 22 0 15 3 22 6 14 5 -11 7 -11 14 0 6 10 9
4 9 -17 0 -17 8 -38 17 -45 10 -8 14 -9 10 -2 -4 6 -3 14 2 17 5 4 11 -2 13
-11 2 -12 6 -14 11 -6 4 6 0 18 -8 26 -8 9 -15 24 -14 34 0 16 1 16 8 -2 7
-17 8 -17 13 8 5 28 1 32 -19 19z"/>
<path d="M805 320 c-3 -11 -2 -28 4 -37 9 -15 10 -12 11 15 0 20 4 31 10 27 6
-3 10 -1 10 4 0 19 -28 12 -35 -9z"/>
</g>
</svg>
