<?xml version="1.0" standalone="no"?>
<!DOCTYPE svg PUBLIC "-//W3C//DTD SVG 20010904//EN"
 "http://www.w3.org/TR/2001/REC-SVG-20010904/DTD/svg10.dtd">
<svg version="1.0" xmlns="http://www.w3.org/2000/svg"
 width="158.000000pt" height="158.000000pt" viewBox="0 0 158.000000 158.000000"
 preserveAspectRatio="xMidYMid meet">
<metadata>
Created by potrace 1.10, written by Peter Selinger 2001-2011
</metadata>
<g transform="translate(0.000000,158.000000) scale(0.100000,-0.100000)"
fill="#000000" stroke="none">
<path d="M687 1172 l-98 -58 0 -118 c0 -114 5 -135 33 -136 3 0 4 51 1 113
l-6 114 81 46 c45 26 86 47 92 47 6 0 46 -20 90 -45 l78 -46 1 -92 1 -92 -85
-49 -85 -48 -45 26 -45 27 0 92 1 92 44 27 45 27 45 -27 c43 -26 44 -29 45
-77 0 -49 -1 -51 -42 -73 -24 -12 -46 -22 -50 -22 -5 0 -8 22 -8 50 0 39 4 52
20 60 11 6 20 15 20 19 0 18 -32 20 -56 5 -21 -15 -24 -23 -24 -83 0 -62 2
-69 25 -81 22 -12 30 -10 77 15 79 42 78 41 78 114 l0 66 -65 38 -65 38 -65
-38 -65 -38 0 -115 0 -115 65 -34 64 -34 58 32 c32 17 77 41 101 53 l42 22 0
120 0 121 -96 55 c-53 30 -99 56 -102 57 -4 1 -51 -24 -105 -55z"/>
<path d="M1428 708 c5 -21 6 -21 13 -2 5 13 8 14 8 4 1 -20 40 -23 48 -4 8 21
-6 32 -17 14 -7 -10 -10 -11 -10 -2 0 6 -11 12 -24 12 -20 0 -23 -4 -18 -22z"/>
<path d="M148 668 c-2 -31 -8 -44 -20 -46 -12 -2 -18 3 -18 17 0 11 8 22 18
24 10 3 6 5 -10 6 -25 1 -28 -3 -28 -29 0 -23 5 -31 25 -36 35 -9 55 11 55 57
0 53 -18 59 -22 7z"/>
<path d="M688 704 c-14 -13 -9 -81 7 -94 8 -7 25 -10 40 -6 20 5 25 13 25 36
0 26 -3 30 -29 30 -22 0 -30 5 -33 21 -2 11 -6 17 -10 13z m52 -65 c0 -14 -5
-19 -17 -17 -26 5 -29 38 -4 38 15 0 21 -6 21 -21z"/>
<path d="M350 685 c0 -8 -5 -15 -12 -15 -9 0 -9 -3 0 -12 7 -7 12 -22 12 -35
0 -13 5 -23 10 -23 6 0 10 11 10 25 0 16 6 25 15 25 8 0 15 5 15 10 0 6 -7 10
-15 10 -8 0 -15 7 -15 15 0 8 -4 15 -10 15 -5 0 -10 -7 -10 -15z"/>
<path d="M1050 656 c0 -25 5 -48 11 -51 15 -10 16 -6 11 48 -5 60 -22 62 -22
3z"/>
<path d="M1270 686 c0 -8 -6 -17 -12 -20 -10 -5 -10 -7 0 -12 6 -3 12 -17 12
-30 0 -13 5 -24 10 -24 6 0 10 14 10 31 0 16 4 28 9 24 5 -3 12 -1 16 5 3 5
-1 10 -9 10 -9 0 -16 7 -16 15 0 8 -4 15 -10 15 -5 0 -10 -6 -10 -14z"/>
<path d="M1125 670 c-8 -13 4 -53 19 -62 6 -4 21 -8 34 -8 19 0 22 5 22 41 0
24 -4 38 -10 34 -5 -3 -10 -17 -10 -31 0 -15 -6 -24 -15 -24 -9 0 -15 9 -15
24 0 27 -15 42 -25 26z"/>
<path d="M220 644 c-12 -22 -12 -27 0 -35 34 -21 80 10 67 45 -10 26 -52 20
-67 -10z"/>
<path d="M453 663 c4 -3 2 -12 -4 -19 -18 -22 -2 -46 28 -42 23 2 29 8 31 36
3 30 1 32 -29 32 -18 0 -29 -3 -26 -7z"/>
<path d="M590 661 c33 -9 40 -41 8 -41 -22 1 -22 1 -4 15 19 15 19 15 -2 15
-27 0 -41 -28 -21 -41 23 -14 48 -10 59 10 16 31 2 51 -34 50 -29 -1 -29 -1
-6 -8z"/>
<path d="M810 655 c0 -8 9 -15 19 -15 11 0 23 -4 26 -10 4 -6 -5 -10 -19 -10
-14 0 -26 -4 -26 -10 0 -16 46 -12 60 5 9 11 10 18 1 28 -6 8 -8 17 -4 20 3 4
-8 7 -25 7 -22 0 -32 -5 -32 -15z"/>
<path d="M927 663 c-12 -11 -8 -40 8 -53 8 -7 25 -10 40 -6 20 5 25 13 25 36
0 27 -3 30 -33 30 -19 0 -37 -3 -40 -7z m53 -23 c0 -13 -7 -20 -20 -20 -19 0
-27 20 -13 33 13 14 33 6 33 -13z"/>
<path d="M1367 663 c-13 -12 -7 -51 9 -57 23 -9 34 -7 34 5 0 7 7 17 17 24 9
7 13 17 9 23 -8 13 -58 16 -69 5z"/>
</g>
</svg>
