<?xml version="1.0" standalone="no"?>
<!DOCTYPE svg PUBLIC "-//W3C//DTD SVG 20010904//EN"
 "http://www.w3.org/TR/2001/REC-SVG-20010904/DTD/svg10.dtd">
<svg version="1.0" xmlns="http://www.w3.org/2000/svg"
 width="158.000000pt" height="158.000000pt" viewBox="0 0 158.000000 158.000000"
 preserveAspectRatio="xMidYMid meet">
<metadata>
Created by potrace 1.10, written by Peter Selinger 2001-2011
</metadata>
<g transform="translate(0.000000,158.000000) scale(0.100000,-0.100000)"
fill="#000000" stroke="none">
<path d="M770 1041 c0 -5 3 -17 6 -26 5 -13 8 -14 15 -3 13 20 11 38 -6 38 -8
0 -15 -4 -15 -9z"/>
<path d="M740 1026 c0 -48 14 -106 26 -106 9 0 15 -13 16 -37 l1 -38 4 34 c3
19 11 40 18 45 16 13 32 116 18 116 -16 0 -30 -55 -21 -80 5 -12 6 -25 4 -27
-5 -5 -46 84 -46 98 0 5 -4 9 -10 9 -5 0 -10 -6 -10 -14z"/>
<path d="M706 992 c-13 -22 4 -89 31 -119 35 -37 44 -13 12 30 -12 17 -25 47
-29 67 -4 23 -8 31 -14 22z"/>
<path d="M851 973 c-1 -18 -11 -44 -26 -61 -31 -37 -34 -68 -6 -52 29 15 57
95 43 123 -10 21 -11 20 -11 -10z"/>
<path d="M291 771 c-42 -42 -18 -131 35 -131 28 0 40 12 46 43 4 23 2 27 -17
27 -18 0 -21 -4 -17 -30 2 -16 0 -30 -5 -30 -35 0 -48 101 -15 119 11 6 24 6
36 -1 14 -8 17 -7 14 3 -7 23 -55 22 -77 0z"/>
<path d="M903 773 c-3 -8 -3 -17 1 -20 3 -4 6 -1 6 5 0 7 7 12 15 12 12 0 15
-13 15 -55 0 -30 -4 -55 -10 -55 -5 0 -10 -4 -10 -8 0 -5 14 -9 30 -9 17 0 30
4 30 9 0 4 -4 8 -10 8 -5 0 -10 25 -10 55 0 38 4 55 13 55 22 0 37 -23 37 -58
0 -43 16 -72 40 -72 11 0 24 9 30 19 12 23 14 101 3 101 -5 0 -8 -21 -8 -47 0
-37 -4 -48 -17 -51 -15 -3 -18 4 -18 47 0 44 -3 51 -19 51 -11 0 -21 5 -23 12
-6 17 -89 18 -95 1z"/>
<path d="M402 748 c-7 -7 -12 -29 -12 -50 0 -32 5 -41 26 -50 23 -11 29 -10
45 11 21 26 24 53 9 82 -12 21 -50 25 -68 7z m49 -25 c14 -37 -4 -81 -26 -63
-15 13 -21 71 -8 83 13 13 24 7 34 -20z"/>
<path d="M498 706 c3 -46 7 -55 25 -60 32 -8 37 -7 37 8 0 9 -7 12 -21 9 -20
-6 -21 -3 -18 46 3 40 1 51 -11 51 -12 0 -14 -11 -12 -54z"/>
<path d="M575 705 l0 -55 33 0 c69 0 66 101 -3 108 l-30 3 0 -56z m55 -6 c0
-28 -4 -39 -15 -39 -11 0 -15 12 -15 45 0 35 3 43 15 39 10 -4 15 -20 15 -45z"/>
<path d="M678 706 c3 -46 7 -55 25 -60 32 -8 37 -7 37 8 0 9 -7 12 -20 9 -16
-4 -20 0 -20 17 0 16 4 20 15 16 9 -3 15 0 15 9 0 9 -6 12 -15 9 -11 -4 -15 0
-15 16 0 17 4 21 20 17 11 -3 20 -1 20 4 0 5 -15 9 -32 9 l-33 0 3 -54z"/>
<path d="M756 703 c1 -32 6 -59 12 -61 6 -2 8 12 5 37 -3 23 -3 41 0 41 3 0
15 -16 27 -35 12 -19 25 -35 28 -35 4 0 8 25 9 55 1 38 -3 55 -11 55 -8 0 -11
-11 -9 -32 l4 -33 -21 33 c-33 48 -45 41 -44 -25z"/>
<path d="M1108 702 c4 -57 4 -58 34 -57 17 0 33 5 35 12 3 7 -3 9 -17 6 -21
-6 -22 -3 -19 46 4 46 2 51 -16 51 -18 0 -20 -6 -17 -58z"/>
<path d="M1188 706 c5 -77 27 -81 27 -5 0 46 -3 59 -15 59 -12 0 -14 -11 -12
-54z"/>
<path d="M1245 708 c0 -48 8 -67 27 -68 4 0 5 13 2 29 -5 23 -2 29 16 34 35 9
23 51 -15 55 -30 3 -30 3 -30 -50z"/>
<path d="M587 603 c105 -2 281 -2 390 0 109 1 23 2 -192 2 -214 0 -304 -1
-198 -2z"/>
<path d="M402 550 c0 -19 2 -29 5 -21 5 11 7 11 14 0 6 -10 9 -6 9 14 0 16 -4
26 -9 23 -5 -4 -12 0 -14 6 -3 7 -5 -3 -5 -22z"/>
<path d="M450 566 c-10 -13 -10 -19 0 -32 12 -14 15 -14 29 0 14 15 14 17 0
32 -14 14 -17 14 -29 0z"/>
<path d="M534 565 c-7 -18 2 -45 14 -45 5 0 9 14 9 30 0 32 -14 40 -23 15z"/>
<path d="M606 572 c-8 -13 0 -47 10 -45 11 3 14 42 3 48 -4 3 -10 2 -13 -3z"/>
<path d="M1030 566 c-14 -18 -6 -50 13 -44 15 6 22 37 10 49 -6 6 -15 4 -23
-5z"/>
<path d="M1076 573 c-12 -12 -6 -40 9 -40 8 0 15 8 15 18 0 20 -14 32 -24 22z"/>
<path d="M1156 572 c-8 -13 0 -47 10 -45 11 3 14 42 3 48 -4 3 -10 2 -13 -3z"/>
</g>
</svg>
