<?xml version="1.0" standalone="no"?>
<!DOCTYPE svg PUBLIC "-//W3C//DTD SVG 20010904//EN"
 "http://www.w3.org/TR/2001/REC-SVG-20010904/DTD/svg10.dtd">
<svg version="1.0" xmlns="http://www.w3.org/2000/svg"
 width="158.000000pt" height="158.000000pt" viewBox="0 0 158.000000 158.000000"
 preserveAspectRatio="xMidYMid meet">
<metadata>
Created by potrace 1.10, written by Peter Selinger 2001-2011
</metadata>
<g transform="translate(0.000000,158.000000) scale(0.100000,-0.100000)"
fill="#000000" stroke="none">
<path d="M934 905 c-6 -36 -8 -68 -5 -71 9 -8 30 120 22 129 -4 4 -12 -22 -17
-58z"/>
<path d="M888 908 c-3 -29 -1 -57 4 -62 4 -6 8 4 8 21 0 17 3 45 6 62 4 19 2
31 -4 31 -5 0 -12 -24 -14 -52z"/>
<path d="M981 902 c-7 -31 -15 -65 -17 -74 -3 -10 -1 -18 4 -18 11 0 42 139
32 145 -4 2 -12 -21 -19 -53z"/>
<path d="M840 895 c0 -25 5 -45 10 -45 6 0 10 20 10 45 0 25 -4 45 -10 45 -5
0 -10 -20 -10 -45z"/>
<path d="M1021 861 c-24 -78 -24 -81 -12 -81 5 0 11 12 14 28 4 15 13 48 21
75 8 26 11 47 6 47 -4 0 -17 -31 -29 -69z"/>
<path d="M800 881 c0 -23 5 -41 10 -41 6 0 10 15 10 34 0 19 -4 38 -10 41 -6
4 -10 -10 -10 -34z"/>
<path d="M1067 831 c-28 -74 -34 -103 -19 -85 15 16 54 132 50 145 -2 7 -16
-20 -31 -60z"/>
<path d="M478 635 c-1 -31 0 -59 5 -62 4 -2 7 7 7 21 0 33 18 34 26 1 3 -14
11 -25 16 -25 6 0 7 8 3 18 -4 9 -7 22 -6 27 8 63 6 70 -21 73 -25 3 -26 1
-30 -53z"/>
<path d="M550 629 c0 -60 0 -60 28 -57 29 3 33 23 5 23 -25 0 -27 22 -2 28 22
6 18 27 -7 27 -8 0 -14 5 -14 10 0 6 9 10 19 10 11 0 23 5 26 10 4 6 -7 10
-24 10 l-31 0 0 -61z"/>
<path d="M620 677 c0 -28 22 -107 29 -107 7 0 31 89 31 113 0 22 -20 -18 -20
-40 0 -13 -4 -23 -10 -23 -5 0 -10 10 -10 23 0 12 -5 29 -10 37 -8 13 -10 12
-10 -3z"/>
<path d="M705 678 c-14 -42 -26 -101 -21 -105 3 -3 8 2 12 11 8 21 23 20 41
-1 13 -17 14 -16 9 7 -3 14 -9 42 -12 63 -6 36 -21 49 -29 25z"/>
<path d="M750 680 c0 -5 5 -10 10 -10 6 0 10 -22 10 -50 0 -27 5 -50 10 -50 6
0 10 23 10 50 0 28 5 50 10 50 6 0 10 5 10 10 0 6 -13 10 -30 10 -16 0 -30 -4
-30 -10z"/>
<path d="M822 639 c3 -56 26 -85 49 -62 16 16 25 113 11 113 -6 0 -12 -21 -14
-47 -4 -66 -28 -70 -28 -4 0 29 -5 51 -11 51 -6 0 -9 -20 -7 -51z"/>
<path d="M900 629 c0 -39 4 -58 10 -54 6 4 8 15 5 26 -9 29 14 23 25 -6 5 -14
11 -25 13 -25 1 0 3 27 4 60 l2 60 -29 0 c-30 0 -30 0 -30 -61z m50 26 c0 -8
-9 -15 -20 -15 -11 0 -20 7 -20 15 0 8 9 15 20 15 11 0 20 -7 20 -15z"/>
<path d="M980 630 c0 -57 1 -60 25 -60 16 0 25 6 25 16 0 11 -6 14 -20 9 -14
-5 -20 -2 -20 9 0 9 7 16 15 16 8 0 15 7 15 15 0 8 -7 15 -15 15 -8 0 -15 5
-15 10 0 6 9 10 20 10 11 0 20 5 20 10 0 6 -11 10 -25 10 -24 0 -25 -3 -25
-60z"/>
</g>
</svg>
